<svg id="Layer_1" data-name="Layer 1" xmlns="http://www.w3.org/2000/svg" viewBox="0 0 160.69 22"><defs><style>.cls-1{fill:#454444;}.cls-2{fill:#e8544a;}</style></defs><path class="cls-1" d="M160.64,8.37A9,9,0,0,1,160,9.69a2.61,2.61,0,0,1-.88.66.48.48,0,0,1-.69-.27c-.16-.48-.49-.56-.92-.55a1.85,1.85,0,0,1-1.07-.28.47.47,0,0,0-.46,0,1.2,1.2,0,0,1-1.25-.12c-.25-.18-.33-.13-.46.15a6.67,6.67,0,0,0-.13,4.72,1.16,1.16,0,0,0,.48.61,4.65,4.65,0,0,1,1.59,4.82c-.08.29-.16.57-.25.86,0,.07,0,.16-.11.18s0-.18,0-.26a5.7,5.7,0,0,0-.56-3.74,3.07,3.07,0,0,0-2-1.64,2.16,2.16,0,0,0-1,0,1.88,1.88,0,0,1-.48,0c0-.17.14-.18.23-.22a4.58,4.58,0,0,1,1.2-.4c.25,0,.28-.17.21-.37a14.72,14.72,0,0,1-.44-1.43,10.93,10.93,0,0,1-.18-2.21,1,1,0,0,0,0-.37l-.31.48a.67.67,0,0,1-.12-.57,26.91,26.91,0,0,0,.32-3.1,3.57,3.57,0,0,1,.71-2,1.24,1.24,0,0,1,.79-.51,5.29,5.29,0,0,0-.83,4l.87-1.81a1.64,1.64,0,0,1,.12.61,2.47,2.47,0,0,0,1.32,1.65.73.73,0,0,0,.66,0l.42-.14a.26.26,0,0,1,.32.12.84.84,0,0,0,.79.43,1.18,1.18,0,0,1,.57.22c.19.13.45.13.65.28l.1.05.18.05a.11.11,0,0,0,.12,0l-.08-.05-.16-.06-.12,0c-.3-.31-.29-.43.07-.86a2,2,0,0,1,.51.65.55.55,0,0,0,0-.59,1.14,1.14,0,0,1,0-.87.28.28,0,0,1,.31-.23c.16,0,.17.17.17.29a2.15,2.15,0,0,0,0,.5.77.77,0,0,0-.06-1,4.54,4.54,0,0,0-.61-.63,21.41,21.41,0,0,1-1.93-1.88l-.14-.13c0,.18.06.29.07.4s0,.26-.22.16a1.53,1.53,0,0,1-.21-.14.47.47,0,0,0-.51-.13.43.43,0,0,1-.38,0c-.28-.15-.3-.34-.08-.55A1.31,1.31,0,0,0,156,2.53a1.29,1.29,0,0,0-1-.26A2.73,2.73,0,0,0,152.9,3a9.7,9.7,0,0,0-3.16,5.41,9.13,9.13,0,0,1-.29,1.23,23.41,23.41,0,0,1,0-3.25,2.08,2.08,0,0,0-.49.94,13.6,13.6,0,0,0-.25,4.36,4.84,4.84,0,0,0,.43,1.54c.28.66.58,1.32.89,2a5.3,5.3,0,0,0,.45.71.56.56,0,0,0,.68.25,3.19,3.19,0,0,1,3.57,1.21,3.47,3.47,0,0,1,.37,2.76,3,3,0,0,1-1,1.75L154,22h-.08a.73.73,0,0,1,.09-.41,3.56,3.56,0,0,0,.2-1.91,2.56,2.56,0,0,0-3.43-1.81c-.33.15-.66.29-1,.47a7.89,7.89,0,0,1-2.18.87,4.83,4.83,0,0,1-3.64-.5,2.91,2.91,0,0,1-.66-.46.45.45,0,0,1,.35-.06l1.06.19a4.74,4.74,0,0,0,2.91-.49c.61-.29,1.16-.66,1.77-.94.14-.06.11-.14,0-.24a4.15,4.15,0,0,0-.52-.59,7.66,7.66,0,0,1-2.07-3.71c-.1-.36-.14-.39-.45-.17-.15.1-.16,0-.16-.1a9,9,0,0,1,1.52-5.62c.09-.12.06-.18-.07-.23h0c-.71-.35-.67-.27-.13-.79a7.37,7.37,0,0,1,2.09-1.4,6.67,6.67,0,0,0,.71-.35c.23-.13.22-.26,0-.42s-.23-.06-.21-.19.14-.22.27-.27a13.76,13.76,0,0,1,3.4-1,1.68,1.68,0,0,0,1.17-.69c.17-.24.32-.49.49-.72s.11-.23.24-.2.2.17.22.31.06.54.06.81a.69.69,0,0,0,.53.8.76.76,0,0,1,.48.56,5,5,0,0,0,1.47,2.1c.78.74,1.37,1.64,2.14,2.39a.34.34,0,0,1,.1.28A2.85,2.85,0,0,1,160.64,8.37ZM140.92,3.69h0ZM126.71,14.44a1.11,1.11,0,0,1-.84.61,2.75,2.75,0,0,1-.81,0A1.29,1.29,0,0,1,123.94,14a7.08,7.08,0,0,1-.06-1.3v-.33c0-.72-.25-1-.95-1s-.65,0-.65.65v2.44c0,.19,0,.26.23.23h.19c.1,0,.24-.07.25.12s-.14.13-.24.13H119.8c-.1,0-.22,0-.21-.13s.11-.12.19-.13c.48,0,.48,0,.48-.49,0-1.94,0-3.89,0-5.83,0-.27,0-.4-.34-.36-.1,0-.31.12-.32-.12s.2-.12.31-.12c1.25,0,2.5,0,3.75,0a3.35,3.35,0,0,1,1.17.24,1.54,1.54,0,0,1,1.08,1.49,1.49,1.49,0,0,1-1,1.46c-.18.08-.37.13-.59.21l.68.21a1.2,1.2,0,0,1,.89,1.23c0,.49,0,1,0,1.48,0,.19,0,.45.19.53s.33-.15.45-.3.08-.15.19-.07S126.74,14.38,126.71,14.44Zm-2.86-5.55a.93.93,0,0,0-1-.88c-.12,0-.25,0-.37,0s-.22.05-.22.22c0,.45,0,.91,0,1.36s0,.87,0,1.3c0,.19.06.24.24.23a3.67,3.67,0,0,0,.66,0,.83.83,0,0,0,.69-.71A4.47,4.47,0,0,0,123.85,8.89Zm15.77,5.79c0-.56,0-1.13,0-1.69,0-.09.07-.23-.1-.25s-.14.13-.16.23a2,2,0,0,1-2,1.71c-.28,0-.56,0-.84,0s-.23,0-.23-.23c0-.75,0-1.49,0-2.23,0-.92,0-.92.93-.83a1,1,0,0,1,1,.85c0,.09,0,.18.05.28s0,.2.12.2.12-.14.12-.23V10c0-.08,0-.2-.12-.2s-.12.09-.13.17a2.56,2.56,0,0,1,0,.27.89.89,0,0,1-1,.84h-.72c-.14,0-.2,0-.2-.18,0-.92,0-1.83,0-2.75,0-.15.06-.19.2-.19h.83a1.67,1.67,0,0,1,1.82,1.48c0,.08,0,.19.15.18s.11-.12.11-.2c0-.47,0-1,0-1.42,0-.24-.05-.31-.3-.31-1.72,0-3.45,0-5.17,0h-.17c-.1,0-.11.06-.11.14s0,.12.11.12A1.31,1.31,0,0,0,134,8c.2,0,.29,0,.29.27,0,2.06,0,4.11,0,6.17,0,.19-.05.27-.24.24a.32.32,0,0,0-.14,0c-.11,0-.29-.1-.29.13s.18.12.28.12h5.44C139.54,15,139.63,14.91,139.62,14.68Zm-8.32.26c.13,0,.37.13.37-.13s-.25-.12-.38-.12-.29-.06-.29-.29c0-1,0-2,0-3.06V8.25c0-.11,0-.25.16-.24a1.52,1.52,0,0,1,1.52.9,3.41,3.41,0,0,1,.22.89c0,.1,0,.22.16.2s.1-.14.1-.21c0-.6,0-1.19,0-1.78,0-.22-.06-.26-.27-.26H127c-.12,0-.22,0-.22.16,0,.65,0,1.3,0,1.95,0,.08,0,.14.12.14s.13,0,.14-.13a2.25,2.25,0,0,1,.06-.36A1.72,1.72,0,0,1,128.7,8c.22,0,.29,0,.29.26,0,2,0,4,0,6,0,.43,0,.43-.44.44-.1,0-.24-.06-.24.13s.16.12.25.12ZM137.87,20a2.14,2.14,0,0,1-2.28,1.53,2.51,2.51,0,0,1-2.2-3.64,2.42,2.42,0,0,1,2.6-1.25,2.36,2.36,0,0,1,1.89,1.94c.06.4.06.4-.34.4h-2.23c-.1,0-.21,0-.2.14a9.63,9.63,0,0,0,0,1.42.61.61,0,0,0,.59.56,1.57,1.57,0,0,0,1.55-.68,3.44,3.44,0,0,0,.3-.53c.06-.1.11-.17.23-.12S137.9,19.94,137.87,20Zm-2.76-1.54c0,.15,0,.18.19.19.71,0,.71,0,.71-.69V17.7a1.51,1.51,0,0,0,0-.3c0-.33-.18-.48-.47-.47s-.4.18-.41.49S135.12,18.13,135.11,18.48Zm6.24,2c-.13-.11-.15,0-.21.08s-.3.27-.52.18-.21-.29-.21-.48V18.87c0-.49,0-1,0-1.47,0-.16,0-.22.21-.21h.55c.13,0,.16-.05.16-.16s0-.18-.15-.18-.32,0-.47,0-.31,0-.3-.28c0-.51,0-1,0-1.53,0-.08,0-.2-.11-.22s-.13.11-.16.19a2.41,2.41,0,0,1-1.85,1.82c-.14,0-.12.12-.12.21s0,.16.14.14c.26-.05.26.11.26.29,0,.94,0,1.87,0,2.81a1.13,1.13,0,0,0,.89,1.21,1.77,1.77,0,0,0,1.88-.72C141.42,20.68,141.47,20.6,141.35,20.5Zm-8-3.54c0-.11-.08-.11-.15-.11h-1.06c-.11,0-.22,0-.23.16s.09.18.23.19c.33,0,.4.11.3.42-.19.56-.39,1.12-.59,1.68h-.07c-.25-.62-.49-1.25-.74-1.87-.07-.16-.1-.27.14-.24s.17-.05.17-.18,0-.16-.16-.16h-2.45c-.12,0-.15.06-.15.17s0,.19.15.17.28.11.35.27c.54,1.27,1.09,2.53,1.63,3.8a.35.35,0,0,0,.37.25c.21,0,.23-.13.28-.27l1.28-3.32c.12-.31.25-.62.62-.73C133.38,17.15,133.33,17,133.33,17ZM141,3.7h0l0,0Zm0,0h0ZM120.71,18.83Zm-.06,0h0l0,0Zm0,0h0l0,0Z"/><path class="cls-2" d="M118.49,16a7.46,7.46,0,0,1-.84-5.06,9.75,9.75,0,0,1,4.41-6.18,15.7,15.7,0,0,1,4.5-2,21.31,21.31,0,0,1,11.18,0,25.53,25.53,0,0,1,3.17,1c0-.1-.12-.13-.19-.17a13.89,13.89,0,0,0-6-2.13,25,25,0,0,0-8.45.34,13.38,13.38,0,0,0-8.44,5.46,7.28,7.28,0,0,0-1.27,5.71,9.29,9.29,0,0,0,3.93,5.86s.06,0,.1,0l-.29-.33A11.47,11.47,0,0,1,118.49,16Z"/><path class="cls-2" d="M115.66,10.84a7.09,7.09,0,0,1,1.8-4.41,16.56,16.56,0,0,1,4.94-3.86c.09,0,.22-.06.27-.18-.11-.07-.19,0-.27,0a20.17,20.17,0,0,0-3,1.45,11.76,11.76,0,0,0-3.79,3.33,5.09,5.09,0,0,0-1,4,5.65,5.65,0,0,0,1.81,3,.9.9,0,0,0-.08-.23A6.74,6.74,0,0,1,115.66,10.84Z"/><path class="cls-2" d="M142.07,13.07a14.09,14.09,0,0,1,1.23-4,.14.14,0,0,0-.14.08,13.38,13.38,0,0,0-1.7,3,5.9,5.9,0,0,0-.48,2.52,3.26,3.26,0,0,0,1.66,2.68A10.3,10.3,0,0,1,142.07,13.07Z"/><path class="cls-2" d="M141.93,3.68c.2-.2.31-.41.53-.51s.11-.11.1-.22A2.46,2.46,0,0,1,145.25,0a2.89,2.89,0,0,1,.94.18.93.93,0,0,1-.48.15,9,9,0,0,0-1.36.22,2.47,2.47,0,0,0-1.59,1.85s0,.12,0,.15.1,0,.13-.07a2.5,2.5,0,0,1,2.54-1c.33,0,.65.07,1,.12a.91.91,0,0,0,1.1-.45.86.86,0,0,1-.61.89,2.69,2.69,0,0,1-1.09.1,7.91,7.91,0,0,0-1.46,0,2.48,2.48,0,0,0-1.55.77c.2.08.43,0,.58.23-.18.07-.39,0-.55.15A1.85,1.85,0,0,0,144,3.18c-.23.33-.44.51-.78.5S142.4,3.68,141.93,3.68Z"/><path class="cls-2" d="M142.72,2.62s0,0,0,.07l0,0c0-.06,0-.07,0-.08S142.72,2.61,142.72,2.62Z"/><path class="cls-2" d="M144.08,8.93c-1.3,2-.38,5.48,1.63,6.24-.12-.62-.23-1.22-.34-1.83a.22.22,0,0,0-.17-.19,1.7,1.7,0,0,1-1-1,4,4,0,0,1-.26-1.94C144,9.81,144,9.4,144.08,8.93Z"/><path class="cls-2" d="M146.67,6a2,2,0,0,0,.54-2.48,1.8,1.8,0,0,0-1.11-.89c0,.1.13.15.19.22a1.78,1.78,0,0,1-.35,2.91l-.41.26a5.51,5.51,0,0,0-1.65,1.54,1.21,1.21,0,0,0-.19.48L143.8,8a9.08,9.08,0,0,1,2.35-1.63A2.9,2.9,0,0,0,146.67,6Z"/><path class="cls-2" d="M143.08,5.22A2,2,0,0,0,143.21,4c-.11.26-.2.51-.3.74s-.24.49-.36.73a.52.52,0,0,0-.06.16,1.24,1.24,0,0,0,.43,1.44,1.14,1.14,0,0,0,1.47-.49,2,2,0,0,0,0-2.17,1.06,1.06,0,0,0-.82-.56c0,.1.11.14.17.19a1.38,1.38,0,0,1,.51,1.11,1.39,1.39,0,0,1-.56,1.3.53.53,0,0,1-.59,0A.5.5,0,0,1,142.9,6,3,3,0,0,1,143.08,5.22Z"/><path class="cls-2" d="M144.65,1a2.12,2.12,0,0,1,2,.14.8.8,0,0,0,1.18-.43,1.72,1.72,0,0,1-1.58-.13A1.27,1.27,0,0,0,144.65,1Z"/><path class="cls-2" d="M144.47,3.24a1.21,1.21,0,0,0,1.14-.13.19.19,0,0,0,.09-.19c0-.1-.11-.08-.18-.08h-.36a1.67,1.67,0,0,0-.59,0,.3.3,0,0,0-.19.23C144.36,3.16,144.4,3.21,144.47,3.24Z"/><polygon class="cls-2" points="146.09 2.64 146.09 2.65 146.09 2.65 146.1 2.66 146.1 2.65 146.09 2.64"/><path class="cls-2" d="M146.08,2.64h0Z"/><path class="cls-1" d="M2.6,13.4h1l2.6,6.65h-1l-.72-2H1.66l-.75,2H0Zm-.66,3.9H4.19L3.08,14.2h0Z"/><path class="cls-1" d="M7,13.4h.79v6.65H7Z"/><path class="cls-1" d="M8.83,19.3,13,14.15H9.15V13.4H14v.75L9.88,19.3h4.23v.75H8.83Z"/><path class="cls-1" d="M19.4,20a1.14,1.14,0,0,1-.57.13.67.67,0,0,1-.49-.18.78.78,0,0,1-.18-.57,2,2,0,0,1-.76.57,2.41,2.41,0,0,1-.93.18,2.45,2.45,0,0,1-.62-.08,1.33,1.33,0,0,1-.51-.23,1.28,1.28,0,0,1-.34-.42,1.46,1.46,0,0,1-.12-.62,1.33,1.33,0,0,1,.14-.67,1.22,1.22,0,0,1,.36-.42,1.92,1.92,0,0,1,.52-.25l.6-.14c.22,0,.43-.08.62-.1a3.28,3.28,0,0,0,.52-.09A.77.77,0,0,0,18,17a.42.42,0,0,0,.13-.34A.87.87,0,0,0,18,16.2a.75.75,0,0,0-.26-.24,1.13,1.13,0,0,0-.34-.11,2.43,2.43,0,0,0-.38,0,1.73,1.73,0,0,0-.83.19.81.81,0,0,0-.37.72h-.79a1.84,1.84,0,0,1,.19-.75,1.44,1.44,0,0,1,.45-.5,1.85,1.85,0,0,1,.64-.27,3.1,3.1,0,0,1,.76-.09,4.74,4.74,0,0,1,.65.05,1.88,1.88,0,0,1,.58.19,1.18,1.18,0,0,1,.42.41,1.34,1.34,0,0,1,.16.68v2.47a2,2,0,0,0,0,.41c0,.09.09.13.22.13a.57.57,0,0,0,.24-.05Zm-1.29-2.47a.66.66,0,0,1-.28.13l-.35.08-.39.06a2.7,2.7,0,0,0-.41.06,2.22,2.22,0,0,0-.37.09,1.28,1.28,0,0,0-.31.15,1,1,0,0,0-.21.25.81.81,0,0,0-.08.37.67.67,0,0,0,.08.33.63.63,0,0,0,.21.22.69.69,0,0,0,.29.12,1.34,1.34,0,0,0,.35,0,1.88,1.88,0,0,0,.67-.11,1.36,1.36,0,0,0,.46-.27,1,1,0,0,0,.26-.35.84.84,0,0,0,.08-.36Z"/><path class="cls-1" d="M20.37,13.4h.79v2.54h0a1.18,1.18,0,0,1,.26-.37,1.39,1.39,0,0,1,.38-.25,1.57,1.57,0,0,1,.43-.15,2.28,2.28,0,0,1,.44-.05,2,2,0,0,1,.79.14,1.19,1.19,0,0,1,.51.36,1.31,1.31,0,0,1,.28.55,3.15,3.15,0,0,1,.08.71v3.17h-.79V16.79a1,1,0,0,0-.26-.71,1,1,0,0,0-.72-.26,1.73,1.73,0,0,0-.63.11,1.28,1.28,0,0,0-.44.32,1.42,1.42,0,0,0-.27.48,2.23,2.23,0,0,0-.08.6v2.72h-.79Z"/><path class="cls-1" d="M29.87,18.52a1.94,1.94,0,0,1-.69,1.22,2.16,2.16,0,0,1-1.36.42,2.51,2.51,0,0,1-1-.19,2.1,2.1,0,0,1-.71-.53,2.14,2.14,0,0,1-.44-.8,4,4,0,0,1-.16-1,2.91,2.91,0,0,1,.17-1,2.45,2.45,0,0,1,.47-.8,2.14,2.14,0,0,1,1.62-.71,2,2,0,0,1,1.07.27,2.18,2.18,0,0,1,.68.67,2.91,2.91,0,0,1,.35.9,4.24,4.24,0,0,1,.08.92h-3.6a2,2,0,0,0,.07.6,1.42,1.42,0,0,0,.27.5,1.33,1.33,0,0,0,.48.35,1.59,1.59,0,0,0,.68.13,1.38,1.38,0,0,0,.81-.23,1.12,1.12,0,0,0,.43-.71Zm-.76-1.34a1.58,1.58,0,0,0-.12-.53,1.48,1.48,0,0,0-.29-.43,1.35,1.35,0,0,0-.44-.29,1.32,1.32,0,0,0-.53-.11,1.43,1.43,0,0,0-.56.11,1.37,1.37,0,0,0-.42.29,1.44,1.44,0,0,0-.28.44,1.47,1.47,0,0,0-.12.52Z"/><path class="cls-1" d="M31,15.24h.75v1h0a2.15,2.15,0,0,1,.71-.86,1.76,1.76,0,0,1,1.06-.27V16a2.46,2.46,0,0,0-.81.13,1.43,1.43,0,0,0-.54.38,1.69,1.69,0,0,0-.29.62,2.92,2.92,0,0,0-.1.82v2.14H31Z"/><path class="cls-1" d="M42.25,19.22a2.29,2.29,0,0,1-.44.44,2.37,2.37,0,0,1-.53.31,3,3,0,0,1-.58.18,2.9,2.9,0,0,1-.58.05,3,3,0,0,1-2.33-1,3.26,3.26,0,0,1-.62-1.07A3.78,3.78,0,0,1,37,16.86a4.86,4.86,0,0,1,.2-1.39,3.7,3.7,0,0,1,.6-1.15,2.84,2.84,0,0,1,1-.78,3,3,0,0,1,1.38-.29,4.19,4.19,0,0,1,1,.12,2.47,2.47,0,0,1,.85.4,2.28,2.28,0,0,1,.63.68,2.69,2.69,0,0,1,.35,1h-.88a1.69,1.69,0,0,0-.24-.65,1.61,1.61,0,0,0-.44-.46,2.11,2.11,0,0,0-.59-.26,2.69,2.69,0,0,0-.7-.09,2.1,2.1,0,0,0-1,.24,2.18,2.18,0,0,0-.71.64,2.63,2.63,0,0,0-.4.9,4,4,0,0,0-.13,1,3.32,3.32,0,0,0,.15,1,2.72,2.72,0,0,0,.43.85,2.15,2.15,0,0,0,.72.58,2,2,0,0,0,1,.22,2.38,2.38,0,0,0,.91-.17,1.94,1.94,0,0,0,.69-.46,1.84,1.84,0,0,0,.41-.69,2.33,2.33,0,0,0,.12-.85H40.13v-.74H43v3.5h-.56Z"/><path class="cls-1" d="M48.43,20.05h-.75v-.77h0a1.63,1.63,0,0,1-.64.66,1.84,1.84,0,0,1-.92.22,2.21,2.21,0,0,1-.79-.13,1.3,1.3,0,0,1-.51-.37,1.36,1.36,0,0,1-.28-.55,3.08,3.08,0,0,1-.08-.71V15.24h.79v3.25a1,1,0,0,0,.26.71,1,1,0,0,0,.72.26,1.73,1.73,0,0,0,.63-.11,1.19,1.19,0,0,0,.44-.32,1.25,1.25,0,0,0,.27-.48,2.23,2.23,0,0,0,.08-.6V15.24h.8Z"/><path class="cls-1" d="M49.9,13.4h.79v6.65H49.9Z"/><path class="cls-1" d="M52.47,15.93h-.81v-.69h.81v-.72a1.15,1.15,0,0,1,.34-.89,1.46,1.46,0,0,1,1-.3l.26,0,.25.05v.69L54.09,14h-.22a.75.75,0,0,0-.45.11.51.51,0,0,0-.16.43v.67h.93v.69h-.93v4.12h-.79Z"/><path class="cls-1" d="M59.59,14.15H57.38V13.4h5.31v.75H60.47v5.9h-.88Z"/><path class="cls-1" d="M62.64,15.24h.75v1h0a2.15,2.15,0,0,1,.71-.86,1.76,1.76,0,0,1,1.06-.27V16a2.46,2.46,0,0,0-.81.13,1.43,1.43,0,0,0-.54.38,1.69,1.69,0,0,0-.29.62,2.92,2.92,0,0,0-.1.82v2.14h-.79Z"/><path class="cls-1" d="M70.26,20a1.14,1.14,0,0,1-.57.13.65.65,0,0,1-.48-.18.74.74,0,0,1-.19-.57,2,2,0,0,1-.75.57,2.42,2.42,0,0,1-.94.18,2.51,2.51,0,0,1-.62-.08,1.48,1.48,0,0,1-.51-.23,1.28,1.28,0,0,1-.34-.42,1.67,1.67,0,0,1,0-1.29,1.15,1.15,0,0,1,.37-.42,1.67,1.67,0,0,1,.52-.25l.6-.14c.21,0,.42-.08.62-.1a3.35,3.35,0,0,0,.51-.09.87.87,0,0,0,.36-.18.46.46,0,0,0,.13-.34.87.87,0,0,0-.1-.42.82.82,0,0,0-.25-.24,1.3,1.3,0,0,0-.35-.11,2.31,2.31,0,0,0-.37,0,1.74,1.74,0,0,0-.84.19.8.8,0,0,0-.36.72h-.79a1.69,1.69,0,0,1,.18-.75,1.44,1.44,0,0,1,.45-.5,1.85,1.85,0,0,1,.64-.27,3.16,3.16,0,0,1,.76-.09,4.62,4.62,0,0,1,.65.05,1.8,1.8,0,0,1,.58.19,1.18,1.18,0,0,1,.42.41,1.34,1.34,0,0,1,.16.68v2.47a2,2,0,0,0,0,.41c0,.09.09.13.22.13a.57.57,0,0,0,.24-.05ZM69,17.56a.8.8,0,0,1-.28.13l-.36.08-.39.06a2.7,2.7,0,0,0-.41.06,2.22,2.22,0,0,0-.37.09,1.28,1.28,0,0,0-.31.15.82.82,0,0,0-.2.25.7.7,0,0,0-.08.37.58.58,0,0,0,.08.33.61.61,0,0,0,.2.22.69.69,0,0,0,.29.12,1.37,1.37,0,0,0,.36,0,1.92,1.92,0,0,0,.67-.11,1.42,1.42,0,0,0,.45-.27,1,1,0,0,0,.35-.71Z"/><path class="cls-1" d="M75.53,20.05h-.79V19.4h0a1.21,1.21,0,0,1-.62.58,2.29,2.29,0,0,1-.92.18,2.13,2.13,0,0,1-1-.21,1.87,1.87,0,0,1-.69-.55,2.42,2.42,0,0,1-.41-.8,3.12,3.12,0,0,1-.14-1,3.44,3.44,0,0,1,.13-1,2.38,2.38,0,0,1,.41-.79,2,2,0,0,1,.69-.55,2.26,2.26,0,0,1,1-.2,2.85,2.85,0,0,1,.4,0,2.13,2.13,0,0,1,.43.13,1.86,1.86,0,0,1,.41.23,1.59,1.59,0,0,1,.32.36h0V13.4h.79Zm-3.72-2.37a2.39,2.39,0,0,0,.08.66,1.87,1.87,0,0,0,.27.57,1.31,1.31,0,0,0,.47.4,1.4,1.4,0,0,0,.66.15,1.34,1.34,0,0,0,1.14-.57,1.67,1.67,0,0,0,.25-.58,2.48,2.48,0,0,0,.08-.66,2.61,2.61,0,0,0-.08-.69,1.63,1.63,0,0,0-.27-.58,1.23,1.23,0,0,0-.47-.4,1.35,1.35,0,0,0-.69-.16,1.44,1.44,0,0,0-.69.16,1.36,1.36,0,0,0-.44.42,1.83,1.83,0,0,0-.24.59A3.23,3.23,0,0,0,71.81,17.68Z"/><path class="cls-1" d="M77.81,14.37H77v-1h.79Zm-.79.87h.79v4.81H77Z"/><path class="cls-1" d="M79.28,15.24H80V16h0a1.63,1.63,0,0,1,.64-.66,2,2,0,0,1,.92-.22,2,2,0,0,1,.79.14,1.19,1.19,0,0,1,.51.36,1.31,1.31,0,0,1,.28.55,3.15,3.15,0,0,1,.08.71v3.17h-.79V16.79a1,1,0,0,0-.26-.71,1,1,0,0,0-.72-.26,1.73,1.73,0,0,0-.63.11,1.19,1.19,0,0,0-.44.32,1.42,1.42,0,0,0-.27.48,2.23,2.23,0,0,0-.08.6v2.72h-.79Z"/><path class="cls-1" d="M88.83,19.64a2.55,2.55,0,0,1-.54,1.77A2.22,2.22,0,0,1,86.6,22a3.3,3.3,0,0,1-.69-.07,1.93,1.93,0,0,1-.63-.25,1.49,1.49,0,0,1-.47-.43,1.26,1.26,0,0,1-.2-.66h.79a.57.57,0,0,0,.13.36,1,1,0,0,0,.31.24,1.64,1.64,0,0,0,.39.14,3.15,3.15,0,0,0,.41,0,1.46,1.46,0,0,0,.66-.14,1.24,1.24,0,0,0,.45-.37,1.66,1.66,0,0,0,.26-.57,3.38,3.38,0,0,0,.08-.75v-.31h0a1.34,1.34,0,0,1-.26.38,1.54,1.54,0,0,1-.36.27,1.61,1.61,0,0,1-.43.17,2.3,2.3,0,0,1-.45.05,2.13,2.13,0,0,1-.94-.19,2,2,0,0,1-.67-.53,2.4,2.4,0,0,1-.4-.78,3.24,3.24,0,0,1-.14-.94,3.84,3.84,0,0,1,.11-.87A2.65,2.65,0,0,1,84.9,16a2,2,0,0,1,1.74-.85,1.8,1.8,0,0,1,.84.2,1.51,1.51,0,0,1,.6.6h0v-.68h.74Zm-2.21-.24a1.24,1.24,0,0,0,.66-.16,1.29,1.29,0,0,0,.44-.43,1.81,1.81,0,0,0,.25-.6,3,3,0,0,0,.08-.67,2.64,2.64,0,0,0-.08-.62,1.69,1.69,0,0,0-.23-.55,1.18,1.18,0,0,0-.43-.4,1.22,1.22,0,0,0-.63-.15A1.33,1.33,0,0,0,86,16a1.16,1.16,0,0,0-.44.38,1.5,1.5,0,0,0-.25.56,2.39,2.39,0,0,0-.08.66,3.49,3.49,0,0,0,.06.65,1.82,1.82,0,0,0,.23.59,1.21,1.21,0,0,0,.41.43A1.24,1.24,0,0,0,86.62,19.4Z"/><path class="cls-1" d="M97.87,15.4a1.85,1.85,0,0,0-.24-.61,1.61,1.61,0,0,0-.41-.45,2.05,2.05,0,0,0-.56-.26A2.27,2.27,0,0,0,96,14a2.19,2.19,0,0,0-1,.22,2,2,0,0,0-.69.6,2.54,2.54,0,0,0-.41.86,3.78,3.78,0,0,0-.13,1,4.08,4.08,0,0,0,.13,1.07,2.51,2.51,0,0,0,.41.89,2,2,0,0,0,.7.6,2.16,2.16,0,0,0,1,.22,2.13,2.13,0,0,0,.78-.14,1.72,1.72,0,0,0,.58-.4,1.77,1.77,0,0,0,.39-.61,2.71,2.71,0,0,0,.17-.77h.88a3,3,0,0,1-.87,2,2.77,2.77,0,0,1-2,.7,3.13,3.13,0,0,1-1.35-.27,2.51,2.51,0,0,1-1-.73,3.28,3.28,0,0,1-.57-1.1,4.56,4.56,0,0,1-.19-1.36,4.66,4.66,0,0,1,.2-1.36,3.49,3.49,0,0,1,.6-1.11,2.79,2.79,0,0,1,1-.75A3.24,3.24,0,0,1,96,13.25a3.54,3.54,0,0,1,1,.13,2.92,2.92,0,0,1,.83.41,2.32,2.32,0,0,1,.6.68,2.5,2.5,0,0,1,.32.93Z"/><path class="cls-1" d="M99.76,17.65a3.12,3.12,0,0,1,.15-1,2.16,2.16,0,0,1,.45-.8,2.08,2.08,0,0,1,.73-.54,2.63,2.63,0,0,1,2,0,2.12,2.12,0,0,1,.74.54,2.14,2.14,0,0,1,.44.8,3.31,3.31,0,0,1,0,2A2.06,2.06,0,0,1,103.1,20a2.63,2.63,0,0,1-2,0,2.18,2.18,0,0,1-.73-.53,2.25,2.25,0,0,1-.45-.8A3.1,3.1,0,0,1,99.76,17.65Zm.84,0a2.26,2.26,0,0,0,.12.77A1.44,1.44,0,0,0,101,19a1.3,1.3,0,0,0,.48.35,1.4,1.4,0,0,0,.58.12,1.43,1.43,0,0,0,.58-.12,1.48,1.48,0,0,0,.48-.35,1.73,1.73,0,0,0,.32-.57,2.26,2.26,0,0,0,.12-.77,2.32,2.32,0,0,0-.12-.78,1.73,1.73,0,0,0-.32-.57,1.38,1.38,0,0,0-.48-.36,1.43,1.43,0,0,0-.58-.12,1.4,1.4,0,0,0-.58.12,1.22,1.22,0,0,0-.48.36,1.44,1.44,0,0,0-.32.57A2.32,2.32,0,0,0,100.6,17.65Z"/><path class="cls-1" d="M105.77,19h1v1h-1Z"/><path class="cls-1" d="M1.77,7.15a2.22,2.22,0,0,1-.54-.07,1.58,1.58,0,0,1-.57-.24,1.42,1.42,0,0,1-.47-.5A1.57,1.57,0,0,1,0,5.51a1.9,1.9,0,0,1,.18-.87,1.62,1.62,0,0,1,.47-.56,1.92,1.92,0,0,1,.64-.32A2.8,2.8,0,0,1,2,3.67H3.51V6.4A.92.92,0,0,0,3.64,7a.68.68,0,0,0,.55.17h.23a.34.34,0,0,1,.39.39.47.47,0,0,1-.09.33.41.41,0,0,1-.3.09H4.1a2.44,2.44,0,0,1-.48,0,1.28,1.28,0,0,1-.4-.15,1.07,1.07,0,0,1-.3-.3A1,1,0,0,1,2.75,7a2.93,2.93,0,0,1-.47.12A3.14,3.14,0,0,1,1.77,7.15Zm-1-1.71A.88.88,0,0,0,1,6.09a1.15,1.15,0,0,0,.81.24,2.53,2.53,0,0,0,.46,0,3.88,3.88,0,0,0,.44-.13V4.46H1.88a1.3,1.3,0,0,0-.79.24A.85.85,0,0,0,.77,5.44ZM1,1.91a.51.51,0,0,1,.51-.51A.51.51,0,0,1,2,1.91a.51.51,0,0,1-.51.51A.51.51,0,0,1,1,1.91Zm1.25,0a.49.49,0,0,1,.15-.36.45.45,0,0,1,.35-.15.46.46,0,0,1,.36.15.51.51,0,0,1,0,.72.46.46,0,0,1-.36.15.45.45,0,0,1-.35-.15A.49.49,0,0,1,2.23,1.91Z"/><path class="cls-1" d="M4.42,8A.34.34,0,0,1,4,7.56a.42.42,0,0,1,.09-.32.4.4,0,0,1,.29-.09h1.5V4.25h.79V8Zm.39,1.44a.5.5,0,0,1,.51-.5.48.48,0,0,1,.5.5.51.51,0,0,1-.14.36.49.49,0,0,1-.36.15A.46.46,0,0,1,5,9.75.48.48,0,0,1,4.81,9.39Zm1.24,0A.49.49,0,0,1,6.2,9a.53.53,0,0,1,.72,0,.49.49,0,0,1,.15.36.48.48,0,0,1-.15.36.51.51,0,0,1-.72,0A.48.48,0,0,1,6.05,9.39Z"/><path class="cls-1" d="M8.74,4.73h.79V7.41A7.85,7.85,0,0,1,9.45,8.6a1.64,1.64,0,0,1-.32.78,1.34,1.34,0,0,1-.64.44,3.45,3.45,0,0,1-1,.13v-.8a2.07,2.07,0,0,0,.73-.1.66.66,0,0,0,.39-.32,1.33,1.33,0,0,0,.16-.58c0-.23,0-.51,0-.85Z"/><path class="cls-1" d="M12.87,7.53a.47.47,0,0,1-.09.33.41.41,0,0,1-.3.09h-.25a2,2,0,0,1-.56-.07,1,1,0,0,1-.43-.21A1,1,0,0,1,11,7.26a1.91,1.91,0,0,1-.1-.64V1.09h.79V6.41a1,1,0,0,0,.12.57.7.7,0,0,0,.56.17h.15A.34.34,0,0,1,12.87,7.53Z"/><path class="cls-1" d="M12.48,8a.34.34,0,0,1-.38-.39.42.42,0,0,1,.09-.32.4.4,0,0,1,.29-.09h3.85a2.88,2.88,0,0,0-.16-1,1.86,1.86,0,0,0-.44-.68A1.66,1.66,0,0,0,15.08,5a2.56,2.56,0,0,0-.79-.12A3.11,3.11,0,0,0,13.7,5a3.85,3.85,0,0,0-.52.11V4.33l.51-.13a3,3,0,0,1,.69-.07,2.92,2.92,0,0,1,1.24.24,2.34,2.34,0,0,1,.86.65A2.56,2.56,0,0,1,17,6a4.33,4.33,0,0,1,.18,1.16h.59a.34.34,0,0,1,.39.38.46.46,0,0,1-.1.33.39.39,0,0,1-.29.09Zm2,1.43A.45.45,0,0,1,14.64,9a.51.51,0,0,1,.72,0,.45.45,0,0,1,.15.35.5.5,0,0,1-.15.37.53.53,0,0,1-.72,0A.5.5,0,0,1,14.49,9.38Z"/><path class="cls-1" d="M17.76,8a.34.34,0,0,1-.38-.39.42.42,0,0,1,.09-.32.4.4,0,0,1,.29-.09h.64l.4,0A.54.54,0,0,0,19.07,7a.42.42,0,0,0,.16-.21,1,1,0,0,0,.06-.38V4.25h.78V6.09a2,2,0,0,0,0,.44.7.7,0,0,0,.13.33.61.61,0,0,0,.26.21.93.93,0,0,0,.41.08.34.34,0,0,1,.38.38.47.47,0,0,1-.09.33.4.4,0,0,1-.29.09,1,1,0,0,1-.61-.18.86.86,0,0,1-.3-.45.89.89,0,0,1-.55.51,2.88,2.88,0,0,1-.9.12Zm.76-5.31a.51.51,0,1,1,.15.36A.49.49,0,0,1,18.52,2.64Zm1.25,0a.49.49,0,0,1,.15-.36.45.45,0,0,1,.35-.15.46.46,0,0,1,.36.15.51.51,0,0,1,0,.72.46.46,0,0,1-.36.15A.45.45,0,0,1,19.92,3,.49.49,0,0,1,19.77,2.64Z"/><path class="cls-1" d="M20.91,8a.34.34,0,0,1-.39-.39c0-.16,0-.27.1-.32a.39.39,0,0,1,.29-.09H22.4V1.09h.79V8Z"/><path class="cls-1" d="M25.32,1.09V8h-.78V1.09Z"/><path class="cls-1" d="M30.46,7.15a2.22,2.22,0,0,1-.54-.07,1.58,1.58,0,0,1-.57-.24,1.42,1.42,0,0,1-.47-.5,1.57,1.57,0,0,1-.19-.83,1.9,1.9,0,0,1,.18-.87,1.62,1.62,0,0,1,.47-.56A1.92,1.92,0,0,1,30,3.76a2.8,2.8,0,0,1,.7-.09H32.2V6.4a.92.92,0,0,0,.13.57.68.68,0,0,0,.55.17h.23a.34.34,0,0,1,.39.39.47.47,0,0,1-.09.33.41.41,0,0,1-.3.09h-.32a2.44,2.44,0,0,1-.48,0,1.28,1.28,0,0,1-.4-.15,1.07,1.07,0,0,1-.3-.3A1,1,0,0,1,31.44,7,2.93,2.93,0,0,1,31,7.1,3.14,3.14,0,0,1,30.46,7.15Zm-1-1.71a.88.88,0,0,0,.25.65,1.15,1.15,0,0,0,.81.24,2.53,2.53,0,0,0,.46,0,3.17,3.17,0,0,0,.43-.13V4.46h-.84a1.3,1.3,0,0,0-.79.24A.85.85,0,0,0,29.46,5.44Zm.21-3.53a.51.51,0,1,1,.87.36.51.51,0,0,1-.87-.36Zm1.25,0a.52.52,0,0,1,.14-.36.49.49,0,0,1,.36-.15.46.46,0,0,1,.36.15.51.51,0,0,1,0,.72.46.46,0,0,1-.36.15.49.49,0,0,1-.36-.15A.52.52,0,0,1,30.92,1.91Z"/><path class="cls-1" d="M33.11,8a.34.34,0,0,1-.38-.39.42.42,0,0,1,.09-.32.4.4,0,0,1,.29-.09h.65l.39,0A.54.54,0,0,0,34.42,7a.44.44,0,0,0,.17-.21,1.25,1.25,0,0,0,0-.38V4.25h.79V6.09a2.94,2.94,0,0,0,0,.44.82.82,0,0,0,.13.33.61.61,0,0,0,.26.21,1,1,0,0,0,.41.08.33.33,0,0,1,.38.38.47.47,0,0,1-.09.33.39.39,0,0,1-.29.09.93.93,0,0,1-.6-.18.82.82,0,0,1-.31-.45.9.9,0,0,1-.54.51A3,3,0,0,1,33.9,8Zm.76,1.44A.49.49,0,0,1,34,9a.53.53,0,0,1,.72,0,.49.49,0,0,1,.15.36.48.48,0,0,1-.15.36.51.51,0,0,1-.72,0A.48.48,0,0,1,33.87,9.39Zm1.25,0A.49.49,0,0,1,35.27,9,.53.53,0,0,1,36,9a.49.49,0,0,1,.15.36.48.48,0,0,1-.15.36.51.51,0,0,1-.72,0A.48.48,0,0,1,35.12,9.39Z"/><path class="cls-1" d="M36.26,8c-.26,0-.38-.13-.38-.39A.42.42,0,0,1,36,7.24a.4.4,0,0,1,.29-.09h3.85a2.86,2.86,0,0,0-.17-1A1.75,1.75,0,0,0,38.86,5a2.58,2.58,0,0,0-.8-.12,3.19,3.19,0,0,0-.59.06,4,4,0,0,0-.51.11V4.33l.51-.13a3,3,0,0,1,.69-.07,3,3,0,0,1,1.24.24,2.42,2.42,0,0,1,.86.65,2.88,2.88,0,0,1,.5,1,4,4,0,0,1,.17,1.16h.6a.34.34,0,0,1,.38.38.47.47,0,0,1-.09.33.4.4,0,0,1-.29.09Zm2,1.43A.48.48,0,0,1,38.41,9a.49.49,0,0,1,.36-.15.46.46,0,0,1,.36.15.45.45,0,0,1,.15.35.5.5,0,0,1-.15.37.49.49,0,0,1-.36.14.52.52,0,0,1-.36-.14A.53.53,0,0,1,38.27,9.38Z"/><path class="cls-1" d="M41.54,8a.34.34,0,0,1-.39-.39c0-.16,0-.27.1-.32a.39.39,0,0,1,.29-.09h.64l.39,0A.62.62,0,0,0,42.85,7,.42.42,0,0,0,43,6.83a1,1,0,0,0,.05-.38V4.25h.79V6.09a2.94,2.94,0,0,0,0,.44,1,1,0,0,0,.13.33.67.67,0,0,0,.26.21,1,1,0,0,0,.42.08.34.34,0,0,1,.38.38.47.47,0,0,1-.09.33.4.4,0,0,1-.29.09,1,1,0,0,1-.61-.18.88.88,0,0,1-.31-.45.85.85,0,0,1-.54.51,3,3,0,0,1-.91.12Zm.76,1.44a.48.48,0,0,1,.5-.5.5.5,0,0,1,.51.5.48.48,0,0,1-.15.36.46.46,0,0,1-.36.15.49.49,0,0,1-.36-.15A.51.51,0,0,1,42.3,9.39Zm1.24,0A.49.49,0,0,1,43.69,9a.53.53,0,0,1,.72,0,.49.49,0,0,1,.15.36.48.48,0,0,1-.15.36.51.51,0,0,1-.72,0A.48.48,0,0,1,43.54,9.39Z"/><path class="cls-1" d="M44.69,8a.34.34,0,0,1-.39-.39.42.42,0,0,1,.09-.32.41.41,0,0,1,.3-.09h.76l.31,0A.46.46,0,0,0,46,7a.55.55,0,0,0,.14-.21,1.25,1.25,0,0,0,0-.38V1.09H47v5a1.29,1.29,0,0,0,.2.78.72.72,0,0,0,.62.28.34.34,0,0,1,.39.38.47.47,0,0,1-.09.33.41.41,0,0,1-.3.09.93.93,0,0,1-.6-.18.86.86,0,0,1-.3-.45.87.87,0,0,1-.55.51,3.28,3.28,0,0,1-1,.12Z"/><path class="cls-1" d="M47.79,8a.34.34,0,0,1-.38-.39.42.42,0,0,1,.09-.32.4.4,0,0,1,.29-.09h3.85a2.88,2.88,0,0,0-.16-1A1.86,1.86,0,0,0,51,5.43,1.66,1.66,0,0,0,50.39,5a2.56,2.56,0,0,0-.79-.12A3.11,3.11,0,0,0,49,5a3.85,3.85,0,0,0-.52.11V4.33L49,4.2a3,3,0,0,1,.69-.07,2.92,2.92,0,0,1,1.24.24,2.34,2.34,0,0,1,.86.65,2.56,2.56,0,0,1,.5,1,4.33,4.33,0,0,1,.18,1.16h.59a.34.34,0,0,1,.39.38.42.42,0,0,1-.1.33.39.39,0,0,1-.29.09Zm1.47-5.3a.51.51,0,1,1,.15.36A.49.49,0,0,1,49.26,2.65Z"/><path class="cls-1" d="M53.07,8a.34.34,0,0,1-.38-.39.42.42,0,0,1,.09-.32.4.4,0,0,1,.29-.09h1.5V1.09h.78V8Z"/><path class="cls-1" d="M57.49,1.09V8H56.7V1.09Z"/><path class="cls-1" d="M63.81,8a.9.9,0,0,1-.53-.15A1,1,0,0,1,63,7.47a6.45,6.45,0,0,1-.08,1.16,1.81,1.81,0,0,1-.31.77,1.24,1.24,0,0,1-.63.42,3.41,3.41,0,0,1-1,.13v-.8a2.13,2.13,0,0,0,.74-.1A.73.73,0,0,0,62,8.73a1.21,1.21,0,0,0,.15-.58c0-.23,0-.51,0-.85V4.73H63V6.09a1.45,1.45,0,0,0,.18.78.74.74,0,0,0,.66.28.34.34,0,0,1,.38.38.47.47,0,0,1-.09.33A.4.4,0,0,1,63.81,8Z"/><path class="cls-1" d="M63.81,8a.34.34,0,0,1-.39-.39.42.42,0,0,1,.1-.32.39.39,0,0,1,.29-.09h1.52a2,2,0,0,1-.18-.38,1.91,1.91,0,0,1-.08-.62,2,2,0,0,1,.05-.48,1.51,1.51,0,0,1,.18-.45,1.28,1.28,0,0,1,.29-.37A1.24,1.24,0,0,1,66,4.61h-.39l-.39,0V3.91A8,8,0,0,1,67.1,4a3.65,3.65,0,0,1,1.41.55,2.55,2.55,0,0,1,.87,1.07,3.94,3.94,0,0,1,.3,1.62V8Zm2.69-.8a.53.53,0,0,0,.34-.1.72.72,0,0,0,.21-.25,1.17,1.17,0,0,0,.11-.33,2,2,0,0,0,0-.33,2.85,2.85,0,0,0,0-.41A1.33,1.33,0,0,0,67,5.38a.64.64,0,0,0-.22-.24.66.66,0,0,0-.32-.08.6.6,0,0,0-.53.3,1.61,1.61,0,0,0-.18.8,2.07,2.07,0,0,0,0,.35,1,1,0,0,0,.11.31.8.8,0,0,0,.22.23.61.61,0,0,0,.33.1Zm2.37,0a2.58,2.58,0,0,0-.41-1.58,2.21,2.21,0,0,0-1.14-.78,1.06,1.06,0,0,1,.27.29,1.62,1.62,0,0,1,.17.35,1.13,1.13,0,0,1,.09.35,2,2,0,0,1,0,.33,2.65,2.65,0,0,1-.07.62,3.26,3.26,0,0,1-.15.42Z"/><path class="cls-1" d="M72.84,7.53a.47.47,0,0,1-.09.33.41.41,0,0,1-.3.09H72.2a2,2,0,0,1-.56-.07,1,1,0,0,1-.43-.21,1,1,0,0,1-.28-.41,1.91,1.91,0,0,1-.1-.64V1.09h.79V6.41a1,1,0,0,0,.12.57.7.7,0,0,0,.56.17h.15A.34.34,0,0,1,72.84,7.53Z"/><path class="cls-1" d="M72.45,8a.34.34,0,0,1-.38-.39.42.42,0,0,1,.09-.32.4.4,0,0,1,.29-.09h1.09V1.09h.79V5.8a3.81,3.81,0,0,1,1.14-1.24A2.71,2.71,0,0,1,77,4.13a1.86,1.86,0,0,1,1.46.58A2.39,2.39,0,0,1,79,6.33v.82h.73a.34.34,0,0,1,.38.38.47.47,0,0,1-.09.33.4.4,0,0,1-.29.09Zm5.74-.8V6.51a2.45,2.45,0,0,0-.07-.62,1.19,1.19,0,0,0-.23-.51,1.07,1.07,0,0,0-.42-.33,1.57,1.57,0,0,0-.65-.13,1.76,1.76,0,0,0-.85.21,2.67,2.67,0,0,0-.71.54,3.51,3.51,0,0,0-.56.71,4.89,4.89,0,0,0-.37.77ZM76.33,2.64a.51.51,0,1,1,.15.36A.49.49,0,0,1,76.33,2.64Z"/><path class="cls-1" d="M79.71,8a.34.34,0,0,1-.39-.39c0-.16,0-.27.1-.32a.39.39,0,0,1,.29-.09h1.5V1.09H82V8Z"/><path class="cls-1" d="M84.12,1.09V8h-.79V1.09Z"/><path class="cls-1" d="M89.26,7.15a2.22,2.22,0,0,1-.54-.07,1.58,1.58,0,0,1-.57-.24,1.42,1.42,0,0,1-.47-.5,1.57,1.57,0,0,1-.19-.83,1.9,1.9,0,0,1,.18-.87,1.62,1.62,0,0,1,.47-.56,1.92,1.92,0,0,1,.64-.32,2.8,2.8,0,0,1,.7-.09H91V6.4a.92.92,0,0,0,.13.57c.08.11.26.17.55.17h.23a.34.34,0,0,1,.39.39.47.47,0,0,1-.09.33.43.43,0,0,1-.3.09h-.32a2.44,2.44,0,0,1-.48,0,1.28,1.28,0,0,1-.4-.15,1.07,1.07,0,0,1-.3-.3A1,1,0,0,1,90.24,7a2.93,2.93,0,0,1-.47.12A3.14,3.14,0,0,1,89.26,7.15Zm-1-1.71a.88.88,0,0,0,.25.65,1.15,1.15,0,0,0,.81.24,2.53,2.53,0,0,0,.46,0,3.17,3.17,0,0,0,.43-.13V4.46h-.84a1.3,1.3,0,0,0-.79.24A.85.85,0,0,0,88.26,5.44Zm.21-3.53a.51.51,0,1,1,.87.36.51.51,0,0,1-.87-.36Zm1.25,0a.52.52,0,0,1,.14-.36.49.49,0,0,1,.36-.15.46.46,0,0,1,.36.15.51.51,0,0,1,0,.72.46.46,0,0,1-.36.15.49.49,0,0,1-.36-.15A.52.52,0,0,1,89.72,1.91Z"/><path class="cls-1" d="M91.91,8a.34.34,0,0,1-.38-.39.42.42,0,0,1,.09-.32.4.4,0,0,1,.29-.09h2.3A1.2,1.2,0,0,0,94.8,7,.5.5,0,0,0,95,6.54,1.08,1.08,0,0,0,94.8,6a4.21,4.21,0,0,0-.63-.65,8,8,0,0,0-.88-.65,8.86,8.86,0,0,0-1-.58.71.71,0,0,1,.06-.24,1.47,1.47,0,0,1,.1-.22l.12-.17a.58.58,0,0,1,.1-.11L96.14,1.8v.78L93.32,3.83a10,10,0,0,1,1.15.77,5.36,5.36,0,0,1,.76.72,2.55,2.55,0,0,1,.43.66,1.6,1.6,0,0,1,.13.61,1.78,1.78,0,0,1-.06.44,1.1,1.1,0,0,1-.24.45,1.32,1.32,0,0,1-.49.33,2.07,2.07,0,0,1-.81.14Z"/><path class="cls-1" d="M99.51,8A.92.92,0,0,1,99,7.8a1,1,0,0,1-.31-.33,6.35,6.35,0,0,1-.09,1.16,1.81,1.81,0,0,1-.31.77,1.24,1.24,0,0,1-.63.42,3.38,3.38,0,0,1-1,.13v-.8a2.07,2.07,0,0,0,.73-.1.66.66,0,0,0,.39-.32,1.33,1.33,0,0,0,.16-.58c0-.23,0-.51,0-.85V4.73h.78V6.09a1.45,1.45,0,0,0,.18.78.71.71,0,0,0,.65.28.34.34,0,0,1,.39.38.47.47,0,0,1-.09.33A.43.43,0,0,1,99.51,8Z"/><path class="cls-1" d="M99.85,7.15l.54,0a.85.85,0,0,0,.35-.09.46.46,0,0,0,.18-.21,1,1,0,0,0,.06-.38V4.72h.79V6.09a2.94,2.94,0,0,0,0,.44.7.7,0,0,0,.13.33.68.68,0,0,0,.3.21,1.48,1.48,0,0,0,.53.08l.37,0a.54.54,0,0,0,.26-.09.49.49,0,0,0,.16-.21,1.25,1.25,0,0,0,0-.38V4.73h.79V6.09a2.94,2.94,0,0,0,0,.44.7.7,0,0,0,.13.33.58.58,0,0,0,.25.21,1,1,0,0,0,.41.08H106V4.25h.79V8h-1.6a.93.93,0,0,1-.6-.18.86.86,0,0,1-.3-.45.85.85,0,0,1-.54.51,2.79,2.79,0,0,1-.88.12,2.15,2.15,0,0,1-.55-.06,1.08,1.08,0,0,1-.36-.14.78.78,0,0,1-.23-.21,1.76,1.76,0,0,1-.14-.23.85.85,0,0,1-.21.32,1,1,0,0,1-.34.2,2.13,2.13,0,0,1-.51.09q-.3,0-.72,0h-.32a.34.34,0,0,1-.38-.39.42.42,0,0,1,.09-.32.4.4,0,0,1,.29-.09Zm2.94-4.51a.51.51,0,1,1,.15.36A.49.49,0,0,1,102.79,2.64Zm.65-1.15a.49.49,0,0,1,.15-.36A.48.48,0,0,1,104,1a.49.49,0,0,1,.36.15.53.53,0,0,1,0,.72A.49.49,0,0,1,104,2a.48.48,0,0,1-.36-.15A.49.49,0,0,1,103.44,1.49Zm.6,1.15a.51.51,0,1,1,.15.36A.49.49,0,0,1,104,2.64Z"/></svg>